<?xml version="1.0" standalone="no"?><!DOCTYPE svg PUBLIC "-//W3C//DTD SVG 1.1//EN" "http://www.w3.org/Graphics/SVG/1.1/DTD/svg11.dtd"><svg t="1612923683550" class="icon" viewBox="0 0 1024 1024" version="1.1" xmlns="http://www.w3.org/2000/svg" p-id="4654" xmlns:xlink="http://www.w3.org/1999/xlink" width="200" height="200"><defs><style type="text/css"></style></defs><path d="M512.3584 854.4768a62.208 62.208 0 0 1-44.288-18.3296 62.6688 62.6688 0 1 1 44.288 18.3296z m0-94.5664a31.8976 31.8976 0 0 0-22.5792 54.4768 31.8976 31.8976 0 1 0 22.5792-54.4768z" fill="#2962ff" p-id="4655"></path><path d="M465.152 807.2192H269.6192a15.36 15.36 0 0 1 0-30.72h195.5328a15.36 15.36 0 0 1 0 30.72zM755.0976 807.2192H559.616a15.36 15.36 0 1 1 0-30.72h195.4816a15.36 15.36 0 0 1 0 30.72zM694.6304 618.752h-47.872a15.36 15.36 0 0 1 0-30.72h47.872a15.36 15.36 0 0 1 0 30.72zM512.3584 759.9104a15.36 15.36 0 0 1-15.36-15.36v-87.3984a15.36 15.36 0 0 1 30.72 0v87.3984a15.36 15.36 0 0 1-15.36 15.36z" fill="#2962ff" p-id="4656"></path><path d="M709.12 672.768H314.2144a60.7744 60.7744 0 0 1-60.672-60.672v-17.408a60.7232 60.7232 0 0 1 60.672-60.672h394.9056a60.7232 60.7232 0 0 1 60.672 60.672v17.408a60.7744 60.7744 0 0 1-60.672 60.672z m-394.9056-108.032a30.0032 30.0032 0 0 0-29.952 29.952v17.408a30.0032 30.0032 0 0 0 29.952 29.952h394.9056a29.952 29.952 0 0 0 29.952-29.952v-17.408a29.952 29.952 0 0 0-29.952-29.952zM694.6304 436.48h-47.872a15.36 15.36 0 0 1 0-30.72h47.872a15.36 15.36 0 0 1 0 30.72z" fill="#2962ff" p-id="4657"></path><path d="M709.12 490.5472H314.2144A60.7744 60.7744 0 0 1 253.5424 430.08v-17.664A60.7744 60.7744 0 0 1 314.2144 351.744h394.9056a60.7744 60.7744 0 0 1 60.672 60.672V430.08a60.7744 60.7744 0 0 1-60.672 60.4672zM314.2144 382.464a30.0032 30.0032 0 0 0-29.952 29.952V430.08a30.0032 30.0032 0 0 0 29.952 29.952h394.9056a30.0032 30.0032 0 0 0 29.952-29.952v-17.664a30.0032 30.0032 0 0 0-29.952-29.952zM694.6304 254.2592h-47.872a15.36 15.36 0 0 1 0-30.72h47.872a15.36 15.36 0 0 1 0 30.72z" fill="#2962ff" p-id="4658"></path><path d="M709.12 308.2752H314.2144a60.7232 60.7232 0 0 1-60.672-60.672V230.4a60.7232 60.7232 0 0 1 60.672-60.8768h394.9056A60.7232 60.7232 0 0 1 769.792 230.4v17.408a60.7232 60.7232 0 0 1-60.672 60.4672z m-394.9056-108.032A30.0032 30.0032 0 0 0 284.2624 230.4v17.408a30.0032 30.0032 0 0 0 29.952 29.952h394.9056a29.952 29.952 0 0 0 29.952-29.952V230.4a29.952 29.952 0 0 0-29.952-29.952z" fill="#2962ff" p-id="4659"></path></svg>